<svg viewBox="0 0 50 50" fill="none" xmlns="http://www.w3.org/2000/svg">
    <g clip-path="url(#clip0_312_8)">
        <g clip-path="url(#clip1_312_8)">
            <path d="M0.790193 26.8528L18.0926 44.1553C18.6032 44.6628 19.2938 44.9476 20.0136 44.9476C20.7335 44.9476 21.4241 44.6628 21.9346 44.1553C22.19 43.902 22.3927 43.6006 22.531 43.2686C22.6694 42.9365 22.7406 42.5804 22.7406 42.2207C22.7406 41.861 22.6694 41.5048 22.531 41.1728C22.3927 40.8407 22.19 40.5394 21.9346 40.2861L9.34605 27.6975L47.2752 27.6975C47.9979 27.6975 48.6909 27.4104 49.2019 26.8994C49.7129 26.3884 50 25.6954 50 24.9727C50 24.2501 49.7129 23.557 49.2019 23.046C48.6909 22.535 47.9979 22.2479 47.2752 22.2479L9.12807 22.2479L21.8529 9.52313C22.3604 9.0126 22.6452 8.322 22.6452 7.60215C22.6452 6.8823 22.3604 6.19169 21.8529 5.68117C21.3423 5.17367 20.6517 4.88881 19.9319 4.88881C19.212 4.88881 18.5214 5.17367 18.0109 5.68116L0.790194 22.8746C0.517958 23.1295 0.300936 23.4375 0.152571 23.7797C0.0042018 24.1218 -0.0723478 24.4908 -0.0723478 24.8637C-0.0723478 25.2367 0.00420167 25.6056 0.15257 25.9478C0.300935 26.2899 0.517957 26.5979 0.790193 26.8528Z"
                  fill="currentColor"/>
        </g>
    </g>
    <defs>
        <clipPath id="clip0_312_8">
            <rect width="50" height="50" fill="none"/>
        </clipPath>
        <clipPath id="clip1_312_8">
            <rect width="50" height="39.9455" fill="none" transform="translate(50 44.9455) rotate(-180)"/>
        </clipPath>
    </defs>
</svg>
